<svg xmlns="http://www.w3.org/2000/svg" viewBox="0 0 32 32">
  <defs>
    <linearGradient id="cg1" x1="97.9%" y1="52.8%" x2="39.2%" y2="80.7%">
      <stop offset="0%" stop-color="#0052CC"/>
      <stop offset="100%" stop-color="#2684FF"/>
    </linearGradient>
    <linearGradient id="cg2" x1="2.1%" y1="47.2%" x2="60.8%" y2="19.3%">
      <stop offset="0%" stop-color="#0052CC"/>
      <stop offset="100%" stop-color="#2684FF"/>
    </linearGradient>
  </defs>
  <path d="M1.2 23.9c-.3.5-.7 1.1-1 1.6a1 1 0 00.3 1.4l6.5 4a1 1 0 001.4-.3c.3-.4.6-1 1-1.6 2.6-4.3 5.2-3.8 9.9-1.5l6.5 3.1a1 1 0 001.4-.5l3.1-7a1 1 0 00-.5-1.3c-1.4-.6-4.1-1.9-6.5-3.1C14.2 14.4 7.4 14.7 1.2 23.9z" fill="url(#cg1)"/>
  <path d="M30.8 8.1c.3-.5.7-1.2 1-1.6a1 1 0 00-.3-1.4l-6.5-4a1 1 0 00-1.4.3c-.3.4-.6 1-1 1.6-2.6 4.3-5.2 3.8-9.9 1.5L7.2.9a1 1 0 00-1.4.5l-3.1 7a1 1 0 00.5 1.3c1.4.6 4.1 1.9 6.5 3.1 8.5 4.3 15.3 4 22.1-4.7z" fill="url(#cg2)"/>
</svg>
