<svg viewBox="0 0 24 24" xmlns="http://www.w3.org/2000/svg"><path d="M1.636 21.6h3.819V11.52L0 7.636v12.327c0 .904.732 1.636 1.636 1.636z" fill="#4285F4"/><path d="M18.545 21.6h3.819c.905 0 1.636-.733 1.636-1.636V7.636L18.545 11.52z" fill="#34A853"/><path d="M18.545 4.036v7.484L24 7.636V4.855c0-2.024-2.312-3.178-3.927-1.964z" fill="#FBBC04"/><path d="M5.455 11.52V4.036l6.545 4.91 6.545-4.91v7.484L12 16.4z" fill="#EA4335"/><path d="M0 4.855v2.781l5.455 3.884V4.036L3.927 2.891C2.312 1.677 0 2.831 0 4.855z" fill="#C5221F"/></svg>
