<svg viewBox="0 0 24 24" fill="white" xmlns="http://www.w3.org/2000/svg"><path d="M2.513 13.377a10.568 10.568 0 0 1-.497-2.36l7.967 7.967a10.568 10.568 0 0 1-2.36-.497L2.513 13.377zm-1.09-4.622a11.093 11.093 0 0 0-.39 1.544l9.668 9.668a11.08 11.08 0 0 0 1.544-.39L1.423 8.755zm-.919 3.89A11.025 11.025 0 0 1 .39 11.1L11.1.39a11.025 11.025 0 0 1 1.545.114L.504 12.645zm.282-4.776A10.96 10.96 0 0 0 0 5.57L5.57 0a10.96 10.96 0 0 0-2.323.786L.786 3.247zM3.75 1.573A11.03 11.03 0 0 0 1.573 3.75L3.75 1.573zm8.895 21.24l.003-.001L23.66 11.8a10.96 10.96 0 0 1-.787 2.324l-2.461 2.461A10.96 10.96 0 0 1 18.43 18.43l-2.461 2.461a10.96 10.96 0 0 1-2.324.787l-.001.001V21.66l.001.002v.001zm1.996-.748a11.08 11.08 0 0 0 1.544-.39L21.295 16.564a11.08 11.08 0 0 0 .39-1.544l-7.044 7.044zm3.237-1.444a10.568 10.568 0 0 0 1.108-.73l3.284-3.284c.27-.348.513-.719.73-1.108l-5.122 5.122zm2.507-2.507c.448-.584.839-1.216 1.166-1.89l1.89-1.89a11.044 11.044 0 0 1-1.166 1.89l-1.89 1.89zM12.696.504L.504 12.696a11.093 11.093 0 0 0 .282 1.89l13.8-13.8a11.093 11.093 0 0 0-1.89-.282z"/></svg>
