<svg xmlns="http://www.w3.org/2000/svg" viewBox="0 0 100 100" fill="none">
  <rect width="100" height="100" rx="18" fill="white"/>
  <path d="M17.5 16.5C20.6 19 21.9 18.7 27.8 18.3L74.4 15.5C75.5 15.5 74.6 14.4 74.2 14.2L66 8.5C64.4 7.3 62.2 5.9 57.9 6.2L13.1 9.4C11.4 9.6 11 10.5 11.7 11.2L17.5 16.5Z" fill="#1A1A1A"/>
  <path d="M20.1 26.5V78.1C20.1 80.9 21.5 81.9 24.7 81.7L75.3 78.7C78.5 78.5 78.9 76.6 78.9 74.3V23.1C78.9 20.8 77.9 19.6 75.8 19.8L22.8 22.9C20.7 23.1 20.1 24.2 20.1 26.5Z" fill="white" stroke="#1A1A1A" stroke-width="2"/>
  <path d="M56.4 27.9L36.8 29.1C34.8 29.2 34.4 30.1 34.4 31.6V33.4C34.4 34.9 35.5 35.7 36.8 35.5L43.5 35.1V66.1C43.5 67.8 44.5 68.5 45.8 68.5C47.1 68.5 48.5 67.5 49.4 66.5L67.2 43.5V66.9C67.2 68.6 68.2 69.2 69.5 69.1C70.8 69 72.3 68.2 72.3 66.5V34.1C72.3 32.1 71.3 31.5 70.1 31.5L63 31.9L45.5 55V33.5L55.3 32.9C57.3 32.8 57.8 31.7 57.8 30.4C57.8 29.1 57 27.8 56.4 27.9Z" fill="#1A1A1A"/>
</svg>
