<svg xmlns="http://www.w3.org/2000/svg" viewBox="0 0 124 124">
  <path d="M26.3 78.2c0 7.2-5.8 13-13 13s-13-5.8-13-13 5.8-13 13-13h13v13z" fill="#E01E5A"/>
  <path d="M32.9 78.2c0-7.2 5.8-13 13-13s13 5.8 13 13V110c0 7.2-5.8 13-13 13s-13-5.8-13-13V78.2z" fill="#E01E5A"/>
  <path d="M45.9 26.3c-7.2 0-13-5.8-13-13s5.8-13 13-13 13 5.8 13 13v13H45.9z" fill="#36C5F0"/>
  <path d="M45.9 32.9c7.2 0 13 5.8 13 13s-5.8 13-13 13H13.9C6.7 58.9.9 53.1.9 45.9s5.8-13 13-13h32z" fill="#36C5F0"/>
  <path d="M97.8 45.9c0-7.2 5.8-13 13-13s13 5.8 13 13-5.8 13-13 13H97.8V45.9z" fill="#2EB67D"/>
  <path d="M91.2 45.9c0 7.2-5.8 13-13 13s-13-5.8-13-13V13.9C65.2 6.7 71 .9 78.2.9s13 5.8 13 13v32z" fill="#2EB67D"/>
  <path d="M78.2 97.8c7.2 0 13 5.8 13 13s-5.8 13-13 13-13-5.8-13-13V97.8h13z" fill="#ECB22E"/>
  <path d="M78.2 91.2c-7.2 0-13-5.8-13-13s5.8-13 13-13h32c7.2 0 13 5.8 13 13s-5.8 13-13 13H78.2z" fill="#ECB22E"/>
</svg>
